#!OML:ASF F:\VICON\USERDATA\INSTALL\rory3\rory3.ASF
:FULLY-SPECIFIED
:DEGREES
46
root -5.55035 16.6199 17.0926 198.176 -18.5238 -181.085
lowerback -2.83871 7.11713 5.71902
upperback -4.92196 9.18195 0.720559
thorax -2.74367 4.28031 -2.29848
lowerneck -3.90845 -11.0708 -15.6583
upperneck 26.3602 -20.3408 13.245
head 12.3267 -10.3252 4.62002
rclavicle -3.56818e-014 -7.95139e-015
rhumerus 5.27935 -1.14666 -42.7081
rradius 36.3756
rwrist 19.4581
rhand -34.1267 -53.1751
rfingers 7.12502
rthumb -7.30191 -83.0291
lclavicle -3.56818e-014 -7.95139e-015
lhumerus -34.4155 21.4934 -11.4143
lradius 39.7129
lwrist 25.282
lhand -44.3995 -42.2314
lfingers 7.12502
lthumb -17.2058 -12.9732
rfemur -48.222 1.27129 4.44445
rtibia 40.9618
rfoot -10.5286 -13.65
rtoes -26.808
lfemur -27.7624 -3.84206 -18.2212
ltibia 39.7472
lfoot -29.1086 16.6356
ltoes -3.41316
47
root -5.54111 16.6181 17.0718 198.599 -17.506 -180.825
lowerback -2.51475 5.87816 5.52816
upperback -3.53748 7.54275 2.21216
thorax -1.83418 3.54746 -0.686114
lowerneck -8.78809 -10.9811 -17.5534
upperneck 27.4573 -18.6472 12.5171
head 13.6115 -9.43675 4.65494
rclavicle 5.56597e-014 3.49861e-014
rhumerus 10.9226 -0.179988 -43.6362
rradius 35.0171
rwrist 20.0723
rhand -34.293 -51.554
rfingers 7.12502
rthumb -7.46243 -81.4024
lclavicle 5.56597e-014 3.49861e-014
lhumerus -39.1386 23.8006 -14.371
lradius 38.9582
lwrist 23.5825
lhand -43.9002 -42.6265
lfingers 7.12502
lthumb -16.7251 -13.3269
rfemur -49.3244 1.04758 5.16733
rtibia 41.1187
rfoot -9.79435 -13.6797
rtoes -27.2004
lfemur -28.0078 -4.06047 -18.0685
ltibia 39.6962
lfoot -29.3636 17.632
ltoes -2.52596
48
root -5.53121 16.6198 17.0457 198.923 -16.6268 -180.663
lowerback -1.99001 6.19218 5.7258
upperback -3.7266 7.99948 2.22111
thorax -2.27607 3.74921 -0.840764
lowerneck -7.53407 -10.9942 -17.3579
upperneck 26.8037 -18.8982 12.6302
head 13.1102 -9.59141 4.68803
rclavicle -8.98507e-014 7.95139e-015
rhumerus 10.1156 -0.663477 -44.0133
rradius 34.3024
rwrist 20.7868
rhand -34.6004 -49.7282
rfingers 7.12502
rthumb -7.75907 -79.5658
lclavicle -8.98507e-014 7.95139e-015
lhumerus -37.1841 23.3186 -14.0029
lradius 38.571
lwrist 23.3232
lhand -43.2153 -44.5572
lfingers 7.12502
lthumb -16.0657 -15.2033
rfemur -50.2304 0.702749 5.91001
rtibia 41.26
rfoot -9.52441 -13.6589
rtoes -26.1263
lfemur -28.1134 -4.50993 -17.9604
ltibia 39.6801
lfoot -29.649 18.8926
ltoes -1.8871
49
root -5.52228 16.6231 17.0197 199.473 -15.8581 -180.478
lowerback -1.62572 6.31442 5.95714
upperback -3.82306 8.18531 2.3024
thorax -2.55094 3.82008 -0.925481
lowerneck -7.09305 -11.0094 -17.1485
upperneck 26.3977 -18.9227 12.5295
head 12.818 -9.61012 4.63751
rclavicle -1.19271e-014 -7.79236e-014
rhumerus 10.0193 -0.911203 -44.5167
rradius 33.5442
rwrist 21.2361
rhand -34.1974 -49.7625
rfingers 7.12502
rthumb -7.37011 -79.6141
lclavicle -1.19271e-014 -7.79236e-014
lhumerus -35.8305 22.6525 -13.918
lradius 38.3602
lwrist 23.2797
lhand -42.7882 -46.4464
lfingers 7.12502
lthumb -15.6544 -17.0597
rfemur -51.3117 0.271727 6.72297
rtibia 41.3883
rfoot -9.4667 -13.7268
rtoes -24.6429
lfemur -28.5286 -4.91513 -17.8008
ltibia 39.6947
lfoot -29.9126 20.0839
ltoes -1.73648
50
root -5.50903 16.6192 16.9972 200.154 -15.1058 -180.334
lowerback -1.38119 6.31177 6.00826
upperback -3.78952 8.19243 2.49981
thorax -2.67422 3.81535 -0.778648
lowerneck -7.33408 -11.0177 -17.0545
upperneck 26.3068 -18.8061 12.3431
head 12.7746 -9.54273 4.55993
rclavicle 1.20066e-013 6.83819e-014
rhumerus 10.435 -1.02992 -45.001
rradius 32.7994
rwrist 21.6309
rhand -33.6082 -50.4939
rfingers 7.12502
rthumb -6.80139 -80.3647
lclavicle 1.20066e-013 6.83819e-014
lhumerus -34.854 22.0311 -13.9033
lradius 38.2304
lwrist 23.7271
lhand -42.7625 -47.4939
lfingers 7.12502
lthumb -15.6297 -18.1053
rfemur -52.4646 -0.140506 7.52246
rtibia 41.4851
rfoot -9.38642 -14.0057
rtoes -24.5682
lfemur -29.0786 -5.14592 -17.6784
ltibia 39.6745
lfoot -30.1112 21.0507
ltoes -1.65232
51
root -5.49156 16.6168 16.9666 200.658 -14.3701 -180.267
lowerback -1.16522 6.31383 5.9735
upperback -3.57775 8.20386 2.70542
thorax -2.60872 3.82849 -0.563521
lowerneck -7.98358 -11.091 -17.1257
upperneck 26.5221 -18.7819 12.2293
head 12.9869 -9.50379 4.49236
rclavicle -4.92986e-014 -2.54444e-014
rhumerus 10.92 -1.03758 -45.2892
rradius 32.0994
rwrist 21.8977
rhand -33.2844 -51.2178
rfingers 7.12502
rthumb -6.48873 -81.0984
lclavicle -4.92986e-014 -2.54444e-014
lhumerus -33.7853 22.012 -13.9666
lradius 37.8544
lwrist 23.6864
lhand -42.6565 -48.2902
lfingers 7.12502
lthumb -15.5276 -18.8936
rfemur -53.4153 -0.470732 8.25779
rtibia 41.5736
rfoot -9.49175 -14.3478
rtoes -24.0599
lfemur -29.3776 -5.41004 -17.6257
ltibia 39.6536
lfoot -30.3886 22.0506
ltoes -1.29423
52
root -5.47492 16.6277 16.933 201.168 -13.7273 -180.156
lowerback -0.945633 6.38155 6.17392
upperback -3.41716 8.30736 2.74607
thorax -2.53809 3.87965 -0.642549
lowerneck -8.49195 -11.184 -16.9056
upperneck 26.6429 -18.843 12.0992
head 13.1117 -9.4852 4.36584
rclavicle 8.62725e-014 6.36111e-014
rhumerus 11.1704 -1.39248 -45.7513
rradius 31.3814
rwrist 22.1305
rhand -34.0976 -50.3347
rfingers 7.12502
rthumb -7.27379 -80.1897
lclavicle 8.62725e-014 6.36111e-014
lhumerus -32.2849 22.3956 -14.1432
lradius 37.2217
lwrist 23.0407
lhand -42.9331 -48.4215
lfingers 7.12502
lthumb -15.7939 -19.0458
rfemur -54.399 -0.860024 9.08607
rtibia 41.6743
rfoot -9.77334 -14.444
rtoes -22.3481
lfemur -29.6682 -5.78784 -17.4916
ltibia 39.5954
lfoot -30.6636 23.1399
ltoes -1.00308
53
root -5.45509 16.6288 16.9041 201.795 -13.1221 -180.037
lowerback -0.565942 7.0344 6.73582
upperback -4.32165 9.23403 2.13294
thorax -3.46221 4.25564 -1.65805
lowerneck -4.49914 -10.9571 -16.0132
upperneck 24.9992 -19.4196 12.754
head 11.7169 -9.87579 4.62326
rclavicle 2.8625e-014 3.02153e-014
rhumerus 8.4942 -2.15757 -46.1443
rradius 30.9445
rwrist 22.2601
rhand -35.5366 -47.9598
rfingers 7.12502
rthumb -8.66263 -77.7621
lclavicle 2.8625e-014 3.02153e-014
lhumerus -28.0105 21.4322 -13.3147
lradius 36.4711
lwrist 22.5203
lhand -43.5378 -49.0087
lfingers 7.12502
lthumb -16.3762 -19.6801
rfemur -55.5142 -1.20407 9.94037
rtibia 41.8344
rfoot -10.1252 -14.4936
rtoes -20.9429
lfemur -30.1406 -6.09225 -17.3204
ltibia 39.5245
lfoot -30.8047 24.1011
ltoes -0.878701
54
root -5.43142 16.6219 16.869 202.512 -12.4964 -180.216
lowerback -0.256337 5.95873 6.03391
upperback -3.19167 7.78633 3.20497
thorax -2.79818 3.61828 -0.169353
lowerneck -8.38372 -10.9006 -17.1412
upperneck 25.5422 -18.0121 12.0762
head 12.5142 -9.10681 4.56428
rclavicle 3.18055e-015 3.02153e-014
rhumerus 13.0947 -0.691318 -46.6914
rradius 29.9107
rwrist 22.2565
rhand -35.1415 -48.3518
rfingers 7.12502
rthumb -8.28134 -78.1695
lclavicle 3.18055e-015 3.02153e-014
lhumerus -30.9811 22.4742 -15.2411
lradius 36.0721
lwrist 21.8036
lhand -43.5114 -48.6801
lfingers 7.12502
lthumb -16.3508 -19.3493
rfemur -56.5563 -1.68754 10.6199
rtibia 42.0134
rfoot -10.1501 -14.5722
rtoes -21.095
lfemur -30.6517 -6.34148 -17.4542
ltibia 39.43
lfoot -30.7123 25.0616
ltoes -1.25891
55
root -5.41204 16.6133 16.8276 203.212 -11.9665 -180.43
lowerback -0.179574 6.10621 5.81743
upperback -3.20358 7.9922 3.12405
thorax -2.86191 3.72607 -0.146587
lowerneck -7.72753 -10.9834 -16.7431
upperneck 24.8558 -18.2192 12.1876
head 12.1144 -9.17596 4.54248
rclavicle -1.35174e-014 -9.54166e-015
rhumerus 12.7276 -1.30992 -47.0321
rradius 29.3896
rwrist 22.8061
rhand -33.8125 -50.976
rfingers 7.12502
rthumb -6.99855 -80.8403
lclavicle -1.35174e-014 -9.54166e-015
lhumerus -28.6735 22.8315 -15.0495
lradius 35.5052
lwrist 21.4564
lhand -42.6596 -46.8273
lfingers 7.12502
lthumb -15.5305 -17.431
rfemur -57.5185 -2.5197 11.5387
rtibia 42.2132
rfoot -9.69359 -14.5401
rtoes -22.8914
lfemur -31.1698 -6.59771 -17.6304
ltibia 39.3731
lfoot -30.3776 26.2764
ltoes -2.54632
56
root -5.39307 16.6081 16.7897 203.804 -11.5049 -180.383
lowerback 0.0315475 6.15143 5.93489
upperback -3.09537 8.06393 3.19556
thorax -2.85942 3.75869 -0.153762
lowerneck -7.78767 -11.0013 -16.4859
upperneck 24.4992 -18.1447 12.1274
head 11.9395 -9.10647 4.49168
rclavicle 2.14687e-014 -6.36111e-014
rhumerus 12.8747 -1.71821 -47.3534
rradius 28.8517
rwrist 23.0406
rhand -32.6913 -54.2414
rfingers 7.12502
rthumb -5.91616 -84.1388
lclavicle 2.14687e-014 -6.36111e-014
lhumerus -27.0376 22.8499 -14.9792
lradius 35.2472
lwrist 21.5068
lhand -41.4781 -49.3448
lfingers 7.12502
lthumb -14.3923 -19.8638
rfemur -58.4416 -3.17587 12.6873
rtibia 42.3717
rfoot -9.50604 -14.5502
rtoes -22.843
lfemur -31.6442 -6.9184 -17.5085
ltibia 39.3233
lfoot -30.2658 27.4438
ltoes -3.2078
